<?xml version="1.0" encoding="utf-8"?>
<!-- Generator: Adobe Illustrator 28.0.0, SVG Export Plug-In . SVG Version: 6.00 Build 0)  -->
<svg version="1.1" id="Layer_1" xmlns="http://www.w3.org/2000/svg" xmlns:xlink="http://www.w3.org/1999/xlink" x="0px" y="0px"
	 viewBox="0 0 500 500" style="enable-background:new 0 0 500 500;" xml:space="preserve">
<style type="text/css">
	.st0{fill:#29317C;}
</style>
<a xlink:href="88.html" >
	<path id="type_PathItem_-2" class="st0" d="M242.01,181.89c-3.66,2.47-7.86,4.39-10.88,7.49c-14.35,14.9-28.97,29.61-42.5,45.24
		c-31.16,36.1-60.32,73.75-83.81,115.43c-9.23,16.36-17.09,33.36-25.77,49.99c-2.28,4.3-5.12,8.23-8.04,12.06
		c-7.4,9.6-16.91,13.98-29.15,11.52c-11.42-2.28-23.31-3.29-33.45-10.05c-3.56-2.38-4.94-5.03-5.3-9.6
		c-1.55-17,5.03-32.17,10.42-47.34c23.4-65.16,54.01-127.13,84.45-189.18c8.23-16.82,15.81-34,23.31-51.18
		c2.47-5.76,3.93-12.34-0.73-17.55c-5.12-5.85-12.61-3.84-17.91-1.37c-8.59,4.02-16.72,9.69-24.04,15.81
		c-3.29,2.74-5.3,8.04-6.31,12.61c-3.02,13.25-13.71,18.55-25.41,11.97c-13.07-7.31-16.63-19.56-6.49-30.71s21.84-21.29,34.36-29.52
		c13.71-8.96,29.06-15.72,44.14-22.39c4.84-2.1,11.61-2.47,16.72-1.1c24.31,6.76,45.79,19.47,66.53,33.45
		c5.03,3.38,6.49,8.04,6.31,13.71c-0.55,13.71-7.04,25.32-13.07,37.2c-8.77,17.27-17.46,34.64-25.96,52.09
		c-1.01,2.1-0.18,5.12-0.27,7.77c2.83-0.64,6.49-0.46,8.23-2.19c9.05-8.77,17.73-17.82,26.23-27.05
		c22.48-24.31,44.78-48.8,67.45-73.02c13.89-14.9,23.49-17.09,41.31-9.32c8.41,3.66,16.63,8.41,24.04,13.8
		c12.06,8.96,13.89,16.27,7.31,29.89c-8.68,18.1-18.37,35.64-27.42,53.65c-2.74,5.48-6.85,10.97-3.93,19.56
		c4.66-2.92,9.14-4.94,12.89-8.04c30.16-25.5,60.23-51.09,90.39-76.77c2.01-1.74,4.02-3.38,6.03-5.12
		c15.81-13.43,26.6-14.71,44.33-3.93c8.77,5.39,17.09,11.79,24.77,18.64c6.49,5.76,8.23,13.98,4.11,21.84
		c-9.6,18.37-19.83,36.37-29.7,54.56c-22.57,41.22-45.42,82.25-67.45,123.75c-12.25,23.03-18.46,47.71-15.35,74.3
		c0.55,4.84-1.1,10.69-3.56,15.08c-8.77,15.45-23.21,24.13-39.94,28.24c-15.26,3.75-30.53-8.41-33.72-25.32
		c-3.47-18.28-0.46-36.1,4.02-53.83c10.05-39.94,29.7-75.31,50.91-110.13c10.78-17.64,20.2-36.19,30.25-54.29
		c0.91-1.74,1.92-3.56,2.28-5.48c0.27-1.37,0.27-3.66-0.55-4.2c-1.19-0.82-3.56-1.28-4.75-0.55c-5.3,3.11-11.15,5.85-15.35,10.14
		c-20.84,21.29-41.77,42.59-61.69,64.71c-26.69,29.52-51.18,60.78-70.92,95.51c-8.04,14.17-15.26,28.79-22.57,43.41
		c-5.57,11.15-14.44,17.09-26.5,18.1c-11.88,1.01-23.49,0.37-33.82-6.67c-5.3-3.56-7.49-7.59-4.84-13.89
		c11.24-26.87,21.93-53.92,33.36-80.7c18-42.22,36.28-84.26,54.38-126.4c1.74-4.02,2.65-8.32,4.02-12.52
		c-0.55-0.64-1.1-1.19-1.65-1.83L242.01,181.89z"/>
</a>
</svg>
